<svg id="Capa_1" data-name="Capa 1" xmlns="http://www.w3.org/2000/svg" viewBox="0 0 408.5 255.52"><defs><style>.cls-1{fill:#2f2f2f;}</style></defs><path class="cls-1" d="M408.5,170.87l-133.73-.06c-.52,0-1,.09-2.11.2.49,13.82,4,26.19,15,35.34,14.86,12.32,41.13,13.57,56.75,2.37,3.86-2.77,6.49-7.24,9.83-10.79,1.07-1.13,2.6-2.58,3.94-2.59,15.3-.18,30.6-.11,45.91-.09a9.6,9.6,0,0,1,1.76.41c-1.46,10.15-6.24,18.58-12.33,26.38-15.83,20.27-37,30.25-62.29,32.79-27.78,2.78-53.31-2.67-76.14-19.32C239.16,223.87,230,208,226.22,189c-5.07-25.74-4.85-51.31,5-76C242,86,262.22,69.62,290.15,63c25.64-6,50.75-4,74.42,8.21,18.47,9.53,30.52,25.07,37.34,44.35,3,8.65,4,18,5.87,27.11.19.88.48,1.75.72,2.62ZM274.09,138.52h83.13c-.58-21-13.94-37.59-39.94-38.54C293.3,99.1,277.84,112,274.09,138.52Z"/><path class="cls-1" d="M169.13,115c6,3.78,12.33,7.14,17.91,11.51,10.13,7.93,15.66,18.86,18.24,31.33,6.38,30.81-5.88,62.28-32.39,78.88a74,74,0,0,1-32.64,10.66c-11.49,1.11-23.07,1.67-34.61,1.74-33.52.22-67,.08-100.58.08H0V.19C1.16.13,2.43,0,3.71,0Q62.78,0,121.85,0c15.7,0,31,2.27,45.13,9.63,19.66,10.26,30.13,26.76,31.38,48.78a94.32,94.32,0,0,1-1.26,22.14c-2.67,14.62-11.45,25.12-24.31,32.32C171.41,113.67,170,114.47,169.13,115ZM50.25,205.64a6.27,6.27,0,0,0,1.37.31c23.52-.22,47.05-.3,70.56-.81a32.38,32.38,0,0,0,20-7c10-8,11.92-19,11.07-30.87-1-13.25-7.63-21.61-20.19-25a67.08,67.08,0,0,0-16.46-2.45c-21-.3-42-.15-63-.16-1,0-2.06.11-3.29.18Zm0-107.58c1.16.07,2.06.16,3,.16,19.56,0,39.12.1,58.68-.07a67.32,67.32,0,0,0,14.23-1.6c9.82-2.24,18.7-6.18,21-17.4a47.51,47.51,0,0,0,.93-13.45c-.86-10.33-6.62-16.93-16.64-19.31A76.75,76.75,0,0,0,115.33,44c-21-.45-42-.47-63.06-.64a14.73,14.73,0,0,0-2,.31Z"/><path class="cls-1" d="M261,42.48V11.71H369.14V42.48Z"/></svg>