<svg id="Capa_1" data-name="Capa 1" xmlns="http://www.w3.org/2000/svg" viewBox="0 0 297.78 328.59"><defs><style>.cls-1{fill:#2f2f2f;}</style></defs><path class="cls-1" d="M119.72,220.28c-8.7-1.62-17-2.86-25-4.74-17.12-4-32.89-10.84-45.87-23.11C33.73,178.17,26.26,160.08,23.22,140c-2.35-15.46-3.32-31,.57-46.44A78.8,78.8,0,0,1,41.52,59.82c1.66-1.86,1.84-3.29,1.07-5.6-5.84-17.47-3.94-34.67,2.33-51.59A4.12,4.12,0,0,1,48.22.52c5.55.48,11.21.8,16.57,2.21C78.55,6.35,90.72,13.5,102.72,21a7.89,7.89,0,0,0,5.45.93,212,212,0,0,1,102.6-.07,8.41,8.41,0,0,0,5.77-1c13.8-8.61,27.92-16.44,44.11-19.68,11.74-2.34,12.72-1.83,15.85,9.47,4.08,14.75,4.39,29.5-.11,44.26a4.82,4.82,0,0,0,.64,3.91c15.32,17.54,21.63,38.07,20.66,61.11-.66,15.67-2.77,31-8.95,45.6-10.42,24.57-29.41,39.5-54.42,47-11.28,3.37-23,5.3-34.67,7.93,0-.43-.1-.1,0,0,10,10.34,13.35,23.2,13.5,37,.2,19.33,0,38.67-.2,58-.06,5.61,1.46,9.79,7.36,12L98,328.59c7.89-2.25,8.3-8.35,8.16-15-.2-10.33-.05-20.65-.05-31.34-5.51.71-10.27,1.47-15,1.89-12.66,1.11-24.93-.34-36.32-6.38a46.35,46.35,0,0,1-21.93-24.09c-5.48-13.44-13.09-25.19-25.92-32.88a22.94,22.94,0,0,1-5.54-5c-2.2-2.59-1.63-5,1.7-5.53a34.2,34.2,0,0,1,12.47-.16c12.27,2.65,20.83,10.62,27.69,20.77a75.9,75.9,0,0,0,8.63,11.23c12.93,13,28.53,14.55,45.4,9.91.36-.1.7-.29,1.06-.36,5.27-1,8.54-3.29,9.35-9.47C108.73,233.74,113.48,226.69,119.72,220.28Z"/></svg>