<svg id="Capa_1" data-name="Capa 1" xmlns="http://www.w3.org/2000/svg" viewBox="0 0 306.94 307.31"><defs><style>.cls-1{fill:#2f2f2f;}</style></defs><path class="cls-1" d="M172.24,307.31H108.8V102.36h60.78v27.85a23.77,23.77,0,0,0,1.88-2.14C183.28,109.4,200.77,100,222.2,97.69a95.35,95.35,0,0,1,39.19,3.71c21.84,6.94,34.22,22.62,40.22,44.1a153.48,153.48,0,0,1,5.17,40.36c.26,39.38.13,78.76.14,118.14,0,.85-.09,1.69-.15,2.77H243.16v-4.23c0-31.25.21-62.51-.12-93.76a181.56,181.56,0,0,0-2.63-31.62c-3.55-18.81-17.06-25.57-35.12-23.89-22.82,2.12-29.19,17.14-31.53,32.6a154.17,154.17,0,0,0-1.46,22c-.15,31.5-.06,63-.06,94.51Z"/><path class="cls-1" d="M68.61,307.29H5.29v-205H68.61Z"/><path class="cls-1" d="M36.76,74.21C16.51,74.19-.07,57.3,0,36.76A37.1,37.1,0,0,1,37.05,0a37.11,37.11,0,0,1-.29,74.21Z"/></svg>