<svg id="Capa_1" data-name="Capa 1" xmlns="http://www.w3.org/2000/svg" viewBox="0 0 511.67 512"><defs><style>.cls-1{fill:#2f2f2f;}</style></defs><path class="cls-1" d="M240,0h32a27.12,27.12,0,0,0,3.84.83c56.65,4.59,106.94,25,148.87,63.3,70.46,64.34,99.94,144.41,81.68,238.42C475.3,462.56,300.15,554.77,146,482.64c-3.25-1.53-6.16-2.42-9.91-1.55-32.08,7.46-64.22,14.65-96.31,22C27.45,505.93,15.24,509,3,512H1c.2-1.31.32-2.64.6-3.93Q15.91,442.75,30.14,377.4a12.07,12.07,0,0,0-1-7.43c-12.1-23.73-21-48.53-25.37-74.85C2.3,286.45,1.24,277.71,0,269V238c1.63-11.17,2.85-22.41,5-33.49C24.18,103.52,109.55,20.42,210.89,4,220.55,2.4,230.29,1.31,240,0ZM53.36,458.88c1.65-.31,2.58-.46,3.5-.67C84.44,452,112,445.76,139.58,439.35a16.65,16.65,0,0,1,12.68,1.57c51,27.41,104.81,34.09,160.55,18.81C453.9,421,515.66,260.09,436.68,138.13c-48.08-74.24-137.41-112-224.25-93.72C148.14,58,99.22,93.78,66.8,151,44.21,190.88,36,234,41.76,279.6c3.78,29.83,14.09,57.37,29.13,83.29,1.3,2.23,2.2,5.42,1.7,7.84-3.83,18.57-8,37.06-12.13,55.58C58.11,437,55.81,447.65,53.36,458.88Z"/><path class="cls-1" d="M178.68,141.92c14.92,0,16.94,1.25,22.09,13.57,5.59,13.34,10.95,26.79,16.58,40.12,1.69,4,2.08,7.89-.44,11.4a207.18,207.18,0,0,1-13.14,16.8c-6,6.69-6.33,8.14-1.8,15.66,18.76,31.11,44.74,53.8,78.46,67.54,6.62,2.7,8.93,2.34,13.49-3.13q8.63-10.36,17-21c4.3-5.43,6.58-6.71,12.82-3.84q24.7,11.34,48.91,23.73c2.05,1.05,3.83,4.83,3.81,7.33-.14,16-4.63,29.83-18.78,39.69-18.17,12.64-37.39,13.7-58.15,8.73-54.42-13-96.25-44-128.59-88.86-11.2-15.53-22.64-30.95-28.28-49.65-7.91-26.19-3.56-49.6,15.59-69.82C164.34,143.79,171.42,140.84,178.68,141.92Z"/></svg>